Coordinates
version=1
nRows=11
nColumns=36
inDegrees=yes

Units are S.I. units (second, meters, Newtons, ...)
If the header above contains a line with 'inDegrees', this indicates whether rotational values are in degrees (yes) or radians (no).

endheader
time	pelvis_tilt	pelvis_list	pelvis_rotation	pelvis_tx	pelvis_ty	pelvis_tz	hip_flexion_r	hip_adduction_r	hip_rotation_r	knee_angle_r	knee_angle_r_beta	ankle_angle_r	subtalar_angle_r	mtp_angle_r	hip_flexion_l	hip_adduction_l	hip_rotation_l	knee_angle_l	knee_angle_l_beta	ankle_angle_l	subtalar_angle_l	mtp_angle_l	lumbar_extension	lumbar_bending	lumbar_rotation	arm_flex_r	arm_add_r	arm_rot_r	elbow_flex_r	pro_sup_r	arm_flex_l	arm_add_l	arm_rot_l	elbow_flex_l	pro_sup_l
      2.33333330	    -18.19019853	     -3.88833482	      1.52227398	      1.14464062	      1.03666156	     -0.28159142	     37.89065657	     -3.54358497	      4.55144248	     14.23616069	      0.24846788	    -16.09171337	     -5.63581833	     -7.49999840	     35.62821349	    -12.15698057	      3.84827685	     15.90870606	      0.27765930	    -16.15968125	     -8.81653996	     -7.49999840	     -8.89537960	     -1.40436036	      0.88067229	     13.45030507	    -28.50061477	     -2.39548766	     96.82230655	     90.25084345	     12.83146991	    -29.88610599	    -11.34912664	     85.01219769	     97.07973659
      2.35000000	    -17.53286737	     -3.91070944	      1.82059577	      1.16678389	      0.99824903	     -0.28280000	     39.33743414	     -3.34575311	      3.58483248	     16.16919817	      0.28220575	    -14.91430195	     -5.30164657	     -7.49999855	     37.85502003	    -12.11425990	      4.03478853	     18.86007249	      0.32917036	    -14.08423778	     -9.45533291	     -7.49999855	    -10.24709919	     -1.73725080	      0.74757129	     12.07198721	    -28.31524023	     -3.05770239	     97.49560490	     89.26279576	     11.27078444	    -29.97910376	    -12.23714149	     85.18628879	     95.64376716
      2.36666670	    -16.81439691	     -3.78051238	      2.64084512	      1.17962257	      0.95089514	     -0.28690512	     41.18161160	     -3.49767904	      2.88025762	     19.14952735	      0.33422230	    -13.91668284	     -5.20995864	     -7.49999869	     40.86640317	    -11.65333558	      4.19594733	     22.47654958	      0.39228979	    -11.73118494	     -9.60915177	     -7.49999869	    -12.09224408	     -2.01379977	      0.24789893	     10.94719289	    -28.67359248	     -3.26399714	     98.55532192	     88.29054145	     10.40788880	    -29.90985914	    -12.59144025	     85.51626973	     94.27643101
      2.38333330	    -16.38775166	     -3.75411592	      3.13526207	      1.19243453	      0.89928512	     -0.28711947	     45.35979217	     -3.44712832	      3.41598690	     25.44008892	      0.44401331	    -10.49733986	     -5.99324657	     -7.49999900	     45.85160051	    -11.38563521	      4.76883446	     29.06716636	      0.50731776	     -6.25916324	     -9.22198620	     -7.49999900	    -14.82185223	     -2.11542640	      0.31441039	     10.41266568	    -29.35933395	     -4.62899758	     99.88332272	     89.71240959	     10.65766911	    -30.04889115	    -12.97620762	     86.67900075	     96.13440064
      2.40000000	    -17.03133596	     -3.25897078	      3.18733372	      1.21081444	      0.84808052	     -0.28619882	     51.50330306	     -3.48728353	      4.67275939	     34.63006548	      0.60440866	     -3.59892108	     -7.18003267	     -7.49999921	     51.84667054	    -10.99101118	      4.94570912	     38.60814971	      0.67383933	      1.62358378	     -9.15303827	     -7.49999921	    -16.17692002	     -2.66028978	      0.21371458	     10.40340291	    -29.72560261	     -3.62695140	    100.50701331	     86.27870681	     10.46357198	    -30.80480736	    -12.65236617	     87.44760823	     91.70399334
      2.41666670	    -17.41856216	     -2.58431478	      3.14172115	      1.23963213	      0.80922561	     -0.28717204	     57.35451602	     -3.17640852	      6.51604097	     46.03185562	      0.80340744	      5.30167354	     -8.32972997	     -7.49999936	     57.10646542	    -10.91858102	      4.74562398	     48.75882581	      0.85100205	     10.19626982	     -8.00618309	     -7.49999936	    -17.07951376	     -3.64251973	     -0.20684245	      8.95261463	    -27.82530890	     -3.08301445	     98.62582351	     83.75305642	      9.94609516	    -29.93817220	    -13.20067956	     85.78011362	     88.60082514
      2.43333330	    -17.61468940	     -1.91810109	      3.35746024	      1.24550361	      0.78007468	     -0.28956024	     63.00155592	     -3.04095498	      8.03078485	     57.56338619	      1.00467062	     12.67071868	     -8.72446129	     -7.49999948	     62.70355049	    -10.91713453	      4.18294321	     58.91686332	      1.02829325	     17.09355345	     -5.93266418	     -7.49999948	    -19.10877094	     -4.77330186	     -0.61695707	      8.75131260	    -24.97712316	     -3.25410934	     93.60014821	     88.70522608	     10.72763263	    -28.62373813	    -13.71327588	     82.29817898	     95.96132251
      2.45000000	    -18.20198710	     -1.40809021	      3.59534444	      1.25003601	      0.73967787	     -0.29344216	     69.09706703	     -2.73646233	      9.50182155	     68.50732333	      1.19567835	     18.77441130	     -8.71164841	     -7.49999951	     68.91595510	    -10.75434364	      4.16985329	     69.17276108	      1.20729243	     22.51148069	     -4.59456828	     -7.49999951	    -21.56354527	     -5.69131044	     -0.94376667	      9.87620425	    -22.63252782	     -2.88433567	     88.27204744	     88.14616118	     12.79088949	    -27.60424603	    -13.06718088	     79.34979389	     95.31686034
      2.46666670	    -18.14364790	     -1.10674242	      3.49739629	      1.27324084	      0.73114763	     -0.30165308	     71.74810658	     -2.56756924	     10.48177932	     75.56539451	      1.31886493	     24.10811155	     -7.78139370	     -7.49999951	     72.05896570	    -10.73270593	      4.10745619	     76.39955309	      1.33342375	     26.81758086	     -3.18317067	     -7.49999951	    -25.01593581	     -6.11616782	     -0.98993874	     13.25556487	    -19.99673016	     -2.01790036	     78.59314212	     88.21274699	     17.32985235	    -25.45371631	    -11.67511613	     73.49912803	     95.51943928
      2.48333330	    -18.86336710	     -1.23534638	      3.61341564	      1.26724027	      0.69853221	     -0.28888098	     75.13855463	     -2.25766666	     10.62470641	     81.84629341	      1.42848730	     28.44431475	     -6.83078769	     -7.49999959	     75.71844741	    -11.43710484	      3.99885714	     82.52775102	      1.44038098	     29.84418918	     -1.73230244	     -7.49999959	    -28.67203035	     -6.75004184	     -0.21112603	     16.96131768	    -17.70185209	     -2.51263675	     72.57433722	     86.60483204	     23.21562011	    -24.23896413	     -7.78782709	     70.24212606	     92.50741131
      2.50000000	    -20.03783587	     -1.61885118	      3.53141596	      1.27674921	      0.68692779	     -0.29073820	     77.85488083	     -2.14451818	     10.10687833	     85.97782924	      1.50059620	     32.02625327	     -5.67168912	     -7.49999960	     78.65203985	    -12.30941355	      3.98776769	     86.76002095	      1.51424802	     32.39060662	     -0.18601149	     -7.49999960	    -31.95901067	     -7.12660746	      0.32634956	     21.24758332	    -15.45553150	     -1.73716809	     65.84193862	     86.54480451	     27.91089656	    -22.60902463	     -5.19875732	     68.09243244	     92.54080143
